<svg width="59" height="53" viewBox="0 0 59 53" fill="none" xmlns="http://www.w3.org/2000/svg">
<path d="M23.0847 29.124C24.5743 29.124 25.793 30.3053 25.793 31.749C25.793 33.1928 24.5743 34.374 23.0847 34.374C21.5951 34.374 20.3764 33.1928 20.3764 31.749C20.3764 30.3053 21.5951 29.124 23.0847 29.124ZM23.0847 23.874C18.5889 23.874 14.9597 27.3915 14.9597 31.749C14.9597 36.1065 18.5889 39.624 23.0847 39.624C27.5805 39.624 31.2097 36.1065 31.2097 31.749C31.2097 27.3915 27.5805 23.874 23.0847 23.874ZM46.1055 18.624L49.0576 12.2978L55.5847 9.43652L49.0576 6.57527L46.1055 0.249023L43.1535 6.57527L36.6264 9.43652L43.1535 12.2978L46.1055 18.624ZM53.6347 28.389L51.5222 23.874L49.4097 28.389L44.7514 30.4365L49.4097 32.484L51.5222 36.999L53.6347 32.484L58.293 30.4365L53.6347 28.389ZM40.0118 31.749C40.0118 31.434 40.0118 31.0928 39.9847 30.7778L45.2389 26.919L38.468 15.5528L32.4014 18.0203C31.8597 17.679 31.2639 17.3378 30.668 17.049L29.8555 10.749H16.3139L15.5014 17.0753C14.9055 17.364 14.3368 17.7053 13.768 18.0465L7.70138 15.5528L0.930542 26.919L6.18471 30.7778C6.15763 31.0928 6.15763 31.434 6.15763 31.749C6.15763 32.064 6.15763 32.4053 6.18471 32.7203L0.930542 36.579L7.70138 47.9453L13.768 45.4778C14.3097 45.819 14.9055 46.1603 15.5014 46.449L16.3139 52.749H29.8555L30.668 46.4228C31.2639 46.134 31.8326 45.819 32.4014 45.4515L38.468 47.919L45.2389 36.5528L39.9847 32.694C40.0118 32.4053 40.0118 32.064 40.0118 31.749ZM36.166 41.304L31.4805 39.3878C29.9639 40.9628 27.9597 42.1178 25.7118 42.6165L25.0618 47.499H21.1076L20.4847 42.6165C18.2368 42.1178 16.2326 40.9628 14.716 39.3878L10.0305 41.304L8.05346 37.9703L12.0889 35.004C11.7639 33.9803 11.6014 32.904 11.6014 31.7753C11.6014 30.6465 11.7639 29.5703 12.0889 28.5465L8.05346 25.5803L10.0305 22.2465L14.716 24.1628C16.2326 22.5878 18.2368 21.4328 20.4847 20.934L21.1076 15.999H25.0889L25.7118 20.8815C27.9597 21.3803 29.9639 22.5353 31.4805 24.1103L36.166 22.194L38.143 25.5278L34.1076 28.494C34.4326 29.5178 34.5951 30.594 34.5951 31.7228C34.5951 32.8515 34.4326 33.9278 34.1076 34.9515L38.143 37.9178L36.166 41.304Z" fill="#484444"/>
</svg>
